HIERARCHY
ROOT Hips
{
 OFFSET 0.000000 0.000000 0.000000
 CHANNELS 6 Xposition Yposition Zposition Yrotation Xrotation Zrotation
 JOINT Chest
 {
  OFFSET 0.000000 9.585900 0.002600
  CHANNELS 3 Yrotation Xrotation Zrotation
  JOINT Chest2
  {
   OFFSET 0.000000 9.601200 -0.005300
   CHANNELS 3 Yrotation Xrotation Zrotation
   JOINT Chest3
   {
    OFFSET 0.000000 9.561800 0.000000
    CHANNELS 3 Yrotation Xrotation Zrotation
    JOINT Chest4
    {
     OFFSET 0.000000 9.552100 0.000000
     CHANNELS 3 Yrotation Xrotation Zrotation
     JOINT Neck
     {
      OFFSET 0.000000 14.453000 0.000000
      CHANNELS 3 Yrotation Xrotation Zrotation
      JOINT Head
      {
       OFFSET 0.000000 8.936500 -0.011300
       CHANNELS 3 Yrotation Xrotation Zrotation
       End Site
       {
        OFFSET 0.000000 17.073600 -0.006000
       }
      }
     }
     JOINT RightCollar
     {
      OFFSET -2.921100 9.558500 0.000000
      CHANNELS 3 Yrotation Xrotation Zrotation
      JOINT RightShoulder
      {
       OFFSET -13.519700 0.000000 0.000000
       CHANNELS 3 Yrotation Xrotation Zrotation
       JOINT RightElbow
       {
        OFFSET 0.000000 -29.696600 0.000000
        CHANNELS 3 Yrotation Xrotation Zrotation
        JOINT RightWrist
        {
         OFFSET 0.000000 -24.004700 0.000000
         CHANNELS 3 Yrotation Xrotation Zrotation
         End Site
         {
          OFFSET 0.000000 -17.728500 0.000000
         }
        }
       }
      }
     }
     JOINT LeftCollar
     {
      OFFSET 2.921100 9.558500 0.000000
      CHANNELS 3 Yrotation Xrotation Zrotation
      JOINT LeftShoulder
      {
       OFFSET 13.519700 0.000000 0.000000
       CHANNELS 3 Yrotation Xrotation Zrotation
       JOINT LeftElbow
       {
        OFFSET 0.000000 -29.696600 0.000000
        CHANNELS 3 Yrotation Xrotation Zrotation
        JOINT LeftWrist
        {
         OFFSET 0.000000 -24.004700 0.000000
         CHANNELS 3 Yrotation Xrotation Zrotation
         End Site
         {
          OFFSET 0.000000 -17.728500 0.000000
         }
        }
       }
      }
     }
    }
   }
  }
 }
 JOINT RightHip
 {
  OFFSET -7.771700 -0.012900 -0.001300
  CHANNELS 3 Yrotation Xrotation Zrotation
  JOINT RightKnee
  {
   OFFSET 0.000000 -40.869800 0.001200
   CHANNELS 3 Yrotation Xrotation Zrotation
   JOINT RightAnkle
   {
    OFFSET 0.000000 -39.717900 0.002100
    CHANNELS 3 Yrotation Xrotation Zrotation
    JOINT RightToe
    {
     OFFSET 0.000000 -4.965400 11.033500
     CHANNELS 3 Yrotation Xrotation Zrotation
     End Site
     {
      OFFSET 0.000000 -1.423100 5.872300
     }
    }
   }
  }
 }
 JOINT LeftHip
 {
  OFFSET 7.771700 -0.012900 -0.001300
  CHANNELS 3 Yrotation Xrotation Zrotation
  JOINT LeftKnee
  {
   OFFSET 0.000000 -40.869800 0.001200
   CHANNELS 3 Yrotation Xrotation Zrotation
   JOINT LeftAnkle
   {
    OFFSET 0.000000 -39.717900 0.002100
    CHANNELS 3 Yrotation Xrotation Zrotation
    JOINT LeftToe
    {
     OFFSET 0.000000 -4.965400 11.033500
     CHANNELS 3 Yrotation Xrotation Zrotation
     End Site
     {
      OFFSET 0.000000 -1.423100 5.872300
     }
    }
   }
  }
 }
}
MOTION
Frames: 7
Frame Time: 0.008333
0.000000 85.388000 0.000000 0.000000 -5.767877 0.000000 0.000000 11.653817 0.000000 0.000000 -5.885947 0.000000 0.000000 -0.000000 0.000000 0.000000 -0.000000 0.000000 0.000000 12.528835 0.000000 0.000000 0.711642 0.000000 0.000000 -0.000000 0.000000 0.000000 0.000000 -90.000000 0.000000 -2.309062 0.000000 0.000000 2.309062 0.000000 0.000000 -0.000000 0.000000 0.000000 -0.000000 90.000000 0.000000 -2.309062 0.000000 0.000000 2.309062 0.000000 0.000000 8.520406 0.000000 0.000000 1.905762 0.000000 -0.000000 -4.658285 0.000000 0.000000 -0.000000 0.000000 0.000000 8.520406 0.000000 0.000000 1.905762 0.000000 -0.000000 -4.658285 0.000000 0.000000 -0.000000 0.000000
-45.282403 56.359330 -12.347563 -178.122207 -12.760244 -0.159061 -0.310351 14.529671 -0.240769 -0.016871 1.292797 0.043476 -0.013623 2.205188 0.067011 -0.116622 13.075320 0.429456 0.951460 13.782645 -4.448902 2.059757 -11.142735 -4.971051 0.314789 0.665907 1.172257 -1.318667 -9.335903 -5.614930 -91.922619 -61.024287 121.643754 -11.127887 6.852381 -0.804117 -7.037146 -1.515927 1.999286 4.747405 -11.915732 5.554748 61.461808 -55.108483 -97.944319 7.995452 -10.727884 10.024168 -2.886084 -62.463968 10.998458 -34.483569 85.002750 -38.708367 -9.218765 -17.653708 13.789457 0.222582 -0.504342 0.137172 18.508686 -56.575072 -22.028819 67.969796 71.184550 69.036057 -7.163264 -14.983900 1.023260 0.410027 0.895424 0.190215
-45.282223 56.359995 -12.350686 -178.138056 -12.787169 -0.155146 -0.304037 14.535583 -0.238549 -0.017685 1.292337 0.043485 -0.029246 2.181743 0.073144 -0.135254 13.070460 0.428031 1.082480 13.917076 -4.455114 2.177710 -11.027221 -4.992029 0.357744 0.742788 1.154891 -1.279754 -9.368489 -5.645204 -92.738100 -61.262909 122.480615 -11.069923 6.651030 -0.710253 -6.994531 -1.424784 1.967321 4.765521 -11.936934 5.539794 61.475793 -55.121499 -97.941609 8.000122 -10.743722 10.038732 -2.881456 -62.436792 11.009985 -34.512785 85.001014 -38.743636 -9.216497 -17.645056 13.785027 0.224799 -0.504851 0.135821 18.514834 -56.547149 -22.013731 67.995774 71.185794 69.059943 -7.160861 -14.993093 1.028890 0.407584 0.893783 0.185680
-45.280540 56.359930 -12.350628 -178.141234 -12.796300 -0.161419 -0.304989 14.525002 -0.229259 -0.018284 1.292193 0.043331 -0.030229 2.181422 0.072936 -0.136447 13.079138 0.426020 1.188965 14.016819 -4.448044 2.294904 -10.910931 -5.012278 0.372365 0.780868 1.154097 -1.247333 -9.406655 -5.683867 -93.683938 -61.560998 123.458281 -10.985118 6.393336 -0.670428 -6.984015 -1.367221 1.956138 4.779145 -11.961520 5.531370 61.498210 -55.128049 -97.954674 8.003581 -10.747873 10.041679 -2.913629 -62.422620 11.049195 -34.461647 84.993910 -38.707513 -9.213409 -17.638815 13.784918 0.222113 -0.500392 0.131937 18.509584 -56.544408 -21.998722 68.009931 71.190283 69.075408 -7.155459 -14.986571 1.032791 0.404072 0.885253 0.181207
-45.279158 56.360250 -12.352239 -178.146057 -12.817662 -0.164733 -0.303341 14.528047 -0.222680 -0.018649 1.292135 0.043167 -0.030831 2.181330 0.072677 -0.138544 13.087641 0.423269 1.298802 14.118614 -4.441294 2.412525 -10.792966 -5.032971 0.384916 0.837597 1.162360 -1.209833 -9.470912 -5.736098 -94.749313 -61.887021 124.560698 -10.878382 6.095090 -0.680976 -6.975538 -1.306450 1.948426 4.817698 -11.981642 5.521348 61.521168 -55.125924 -97.993068 7.988253 -10.756568 10.044559 -2.921644 -62.399254 11.059406 -34.400798 84.994754 -38.654772 -9.174478 -17.635106 13.777430 0.226204 -0.494992 0.126796 18.500362 -56.527522 -21.977537 68.025559 71.196843 69.089703 -7.149470 -14.986164 1.037392 0.400558 0.879919 0.177500
-45.278498 56.360859 -12.354820 -178.150481 -12.846922 -0.162867 -0.304429 14.539175 -0.220756 -0.018824 1.292104 0.043078 -0.031222 2.181322 0.072518 -0.141824 13.087821 0.418540 1.413672 14.230898 -4.433044 2.532415 -10.672487 -5.055016 0.393370 0.879123 1.167446 -1.187351 -9.504001 -5.764926 -95.884581 -62.225296 125.765177 -10.765611 5.754443 -0.733402 -6.965402 -1.233738 1.941895 4.827814 -12.028431 5.518968 61.544147 -55.120880 -97.997607 7.974936 -10.775060 10.048809 -2.915226 -62.369385 11.053510 -34.402304 84.994825 -38.660777 -9.138810 -17.632269 13.767322 0.215838 -0.484047 0.120240 18.491574 -56.500186 -21.956924 68.038456 71.201859 69.099107 -7.148807 -14.984789 1.040983 0.398051 0.874564 0.176683
-45.277615 56.360869 -12.354445 -178.158538 -12.859728 -0.159953 -0.300086 14.542776 -0.220323 -0.022334 1.284080 0.045929 -0.031629 2.181772 0.072423 -0.141314 13.085723 0.417112 1.527838 14.346647 -4.426971 2.656443 -10.551675 -5.078359 0.396730 0.923915 1.168851 -1.109443 -9.552252 -5.824865 -97.034035 -62.512413 126.938210 -10.662450 5.366915 -0.807980 -6.956373 -1.157943 1.932131 4.837349 -12.077292 5.515832 61.589121 -55.142896 -98.018636 7.995535 -10.787970 10.044388 -2.906271 -62.356683 11.052473 -34.427874 84.987679 -38.682779 -9.149114 -17.628191 13.760577 0.227200 -0.478522 0.124903 18.493790 -56.488215 -21.947266 68.044556 71.206276 69.102487 -7.144850 -14.988520 1.044246 0.393571 0.875755 0.175045
